<svg width="40" height="40" viewBox="0 0 40 40" fill="none" xmlns="http://www.w3.org/2000/svg">
<path d="M14.5184 30H10.3853V16.7133H14.5184V30ZM12.4098 14.8138C11.0774 14.8138 10 13.7346 10 12.4062C10 11.0778 11.0788 10 12.4098 10C13.738 10 14.8182 11.0792 14.8182 12.4062C14.8182 13.7346 13.738 14.8138 12.4098 14.8138ZM30 30H25.8697V23.5386C25.8697 21.9975 25.8417 20.0154 23.7219 20.0154C21.5713 20.0154 21.2406 21.6937 21.2406 23.4267V30H17.1103V16.7133H21.0753V18.5288H21.1313C21.6834 17.4846 23.0312 16.383 25.0417 16.383C29.2266 16.383 30 19.1349 30 22.7128V30Z" fill="#D3D3D3"/>
<path d="M2.73005 39.455L3.18404 38.564L2.73005 39.455ZM0.544967 37.27L1.43597 36.816H1.43597L0.544967 37.27ZM39.455 37.27L38.564 36.816L39.455 37.27ZM37.27 39.455L37.7239 40.346L37.27 39.455ZM37.27 0.544967L36.816 1.43597L37.27 0.544967ZM39.455 2.73005L38.564 3.18404L39.455 2.73005ZM2.73005 0.544967L3.18404 1.43597L2.73005 0.544967ZM8 1H32V-1H8V1ZM39 8V32H41V8H39ZM32 39H8V41H32V39ZM1 32V8H-1V32H1ZM8 39C6.58337 39 5.58104 38.9992 4.79744 38.9352C4.02552 38.8721 3.55435 38.7527 3.18404 38.564L2.27606 40.346C2.9753 40.7023 3.73898 40.8554 4.63458 40.9286C5.51851 41.0008 6.61637 41 8 41V39ZM-1 32C-1 33.3836 -1.00078 34.4815 -0.928558 35.3654C-0.855384 36.261 -0.702323 37.0247 -0.346039 37.7239L1.43597 36.816C1.24729 36.4457 1.12787 35.9745 1.0648 35.2026C1.00078 34.419 1 33.4166 1 32H-1ZM3.18404 38.564C2.43139 38.1805 1.81947 37.5686 1.43597 36.816L-0.346039 37.7239C0.229201 38.8529 1.14708 39.7708 2.27606 40.346L3.18404 38.564ZM39 32C39 33.4166 38.9992 34.419 38.9352 35.2026C38.8721 35.9745 38.7527 36.4457 38.564 36.816L40.346 37.7239C40.7023 37.0247 40.8554 36.261 40.9286 35.3654C41.0008 34.4815 41 33.3836 41 32H39ZM32 41C33.3836 41 34.4815 41.0008 35.3654 40.9286C36.261 40.8554 37.0247 40.7023 37.7239 40.346L36.816 38.564C36.4457 38.7527 35.9745 38.8721 35.2026 38.9352C34.419 38.9992 33.4166 39 32 39V41ZM38.564 36.816C38.1805 37.5686 37.5686 38.1805 36.816 38.564L37.7239 40.346C38.8529 39.7708 39.7708 38.8529 40.346 37.7239L38.564 36.816ZM32 1C33.4166 1 34.419 1.00078 35.2026 1.0648C35.9745 1.12787 36.4457 1.24729 36.816 1.43597L37.7239 -0.346039C37.0247 -0.702323 36.261 -0.855384 35.3654 -0.928558C34.4815 -1.00078 33.3836 -1 32 -1V1ZM41 8C41 6.61637 41.0008 5.51851 40.9286 4.63458C40.8554 3.73898 40.7023 2.9753 40.346 2.27606L38.564 3.18404C38.7527 3.55435 38.8721 4.02552 38.9352 4.79744C38.9992 5.58104 39 6.58337 39 8H41ZM36.816 1.43597C37.5686 1.81947 38.1805 2.43139 38.564 3.18404L40.346 2.27606C39.7708 1.14708 38.8529 0.229201 37.7239 -0.346039L36.816 1.43597ZM8 -1C6.61637 -1 5.51851 -1.00078 4.63458 -0.928558C3.73898 -0.855384 2.9753 -0.702323 2.27606 -0.346039L3.18404 1.43597C3.55435 1.24729 4.02552 1.12787 4.79744 1.0648C5.58104 1.00078 6.58337 1 8 1V-1ZM1 8C1 6.58337 1.00078 5.58104 1.0648 4.79744C1.12787 4.02552 1.24729 3.55435 1.43597 3.18404L-0.346039 2.27606C-0.702323 2.9753 -0.855384 3.73898 -0.928558 4.63458C-1.00078 5.51851 -1 6.61637 -1 8H1ZM2.27606 -0.346039C1.14708 0.229201 0.229201 1.14708 -0.346039 2.27606L1.43597 3.18404C1.81947 2.43139 2.43139 1.81947 3.18404 1.43597L2.27606 -0.346039Z" fill="#D3D3D3"/>
</svg>
