<svg width="40" height="40" viewBox="0 0 40 40" fill="none" xmlns="http://www.w3.org/2000/svg">
<path d="M15.8317 10C12.6159 10 10 12.6183 10 15.835V24.1683C10 27.3841 12.6183 30 15.835 30H24.1683C27.3841 30 30 27.3817 30 24.165V15.8317C30 12.6159 27.3817 10 24.165 10H15.8317ZM25.8333 13.3333C26.2933 13.3333 26.6667 13.7067 26.6667 14.1667C26.6667 14.6267 26.2933 15 25.8333 15C25.3733 15 25 14.6267 25 14.1667C25 13.7067 25.3733 13.3333 25.8333 13.3333ZM20 15C22.7575 15 25 17.2425 25 20C25 22.7575 22.7575 25 20 25C17.2425 25 15 22.7575 15 20C15 17.2425 17.2425 15 20 15ZM20 16.6667C19.1159 16.6667 18.2681 17.0179 17.643 17.643C17.0179 18.2681 16.6667 19.1159 16.6667 20C16.6667 20.8841 17.0179 21.7319 17.643 22.357C18.2681 22.9821 19.1159 23.3333 20 23.3333C20.8841 23.3333 21.7319 22.9821 22.357 22.357C22.9821 21.7319 23.3333 20.8841 23.3333 20C23.3333 19.1159 22.9821 18.2681 22.357 17.643C21.7319 17.0179 20.8841 16.6667 20 16.6667Z" fill="#D3D3D3"/>
<path d="M2.73005 39.455L3.18404 38.564L2.73005 39.455ZM0.544967 37.27L1.43597 36.816H1.43597L0.544967 37.27ZM39.455 37.27L38.564 36.816L39.455 37.27ZM37.27 39.455L37.7239 40.346L37.27 39.455ZM37.27 0.544967L36.816 1.43597L37.27 0.544967ZM39.455 2.73005L38.564 3.18404L39.455 2.73005ZM2.73005 0.544967L3.18404 1.43597L2.73005 0.544967ZM8 1H32V-1H8V1ZM39 8V32H41V8H39ZM32 39H8V41H32V39ZM1 32V8H-1V32H1ZM8 39C6.58337 39 5.58104 38.9992 4.79744 38.9352C4.02552 38.8721 3.55435 38.7527 3.18404 38.564L2.27606 40.346C2.9753 40.7023 3.73898 40.8554 4.63458 40.9286C5.51851 41.0008 6.61637 41 8 41V39ZM-1 32C-1 33.3836 -1.00078 34.4815 -0.928558 35.3654C-0.855384 36.261 -0.702323 37.0247 -0.346039 37.7239L1.43597 36.816C1.24729 36.4457 1.12787 35.9745 1.0648 35.2026C1.00078 34.419 1 33.4166 1 32H-1ZM3.18404 38.564C2.43139 38.1805 1.81947 37.5686 1.43597 36.816L-0.346039 37.7239C0.229201 38.8529 1.14708 39.7708 2.27606 40.346L3.18404 38.564ZM39 32C39 33.4166 38.9992 34.419 38.9352 35.2026C38.8721 35.9745 38.7527 36.4457 38.564 36.816L40.346 37.7239C40.7023 37.0247 40.8554 36.261 40.9286 35.3654C41.0008 34.4815 41 33.3836 41 32H39ZM32 41C33.3836 41 34.4815 41.0008 35.3654 40.9286C36.261 40.8554 37.0247 40.7023 37.7239 40.346L36.816 38.564C36.4457 38.7527 35.9745 38.8721 35.2026 38.9352C34.419 38.9992 33.4166 39 32 39V41ZM38.564 36.816C38.1805 37.5686 37.5686 38.1805 36.816 38.564L37.7239 40.346C38.8529 39.7708 39.7708 38.8529 40.346 37.7239L38.564 36.816ZM32 1C33.4166 1 34.419 1.00078 35.2026 1.0648C35.9745 1.12787 36.4457 1.24729 36.816 1.43597L37.7239 -0.346039C37.0247 -0.702323 36.261 -0.855384 35.3654 -0.928558C34.4815 -1.00078 33.3836 -1 32 -1V1ZM41 8C41 6.61637 41.0008 5.51851 40.9286 4.63458C40.8554 3.73898 40.7023 2.9753 40.346 2.27606L38.564 3.18404C38.7527 3.55435 38.8721 4.02552 38.9352 4.79744C38.9992 5.58104 39 6.58337 39 8H41ZM36.816 1.43597C37.5686 1.81947 38.1805 2.43139 38.564 3.18404L40.346 2.27606C39.7708 1.14708 38.8529 0.229201 37.7239 -0.346039L36.816 1.43597ZM8 -1C6.61637 -1 5.51851 -1.00078 4.63458 -0.928558C3.73898 -0.855384 2.9753 -0.702323 2.27606 -0.346039L3.18404 1.43597C3.55435 1.24729 4.02552 1.12787 4.79744 1.0648C5.58104 1.00078 6.58337 1 8 1V-1ZM1 8C1 6.58337 1.00078 5.58104 1.0648 4.79744C1.12787 4.02552 1.24729 3.55435 1.43597 3.18404L-0.346039 2.27606C-0.702323 2.9753 -0.855384 3.73898 -0.928558 4.63458C-1.00078 5.51851 -1 6.61637 -1 8H1ZM2.27606 -0.346039C1.14708 0.229201 0.229201 1.14708 -0.346039 2.27606L1.43597 3.18404C1.81947 2.43139 2.43139 1.81947 3.18404 1.43597L2.27606 -0.346039Z" fill="#D3D3D3"/>
</svg>
