<svg width="16" height="15" viewBox="0 0 16 15" fill="none" xmlns="http://www.w3.org/2000/svg">
<path d="M15.6979 0.200102C15.4249 -0.0313386 14.9963 -0.0644535 14.553 0.113494C14.0869 0.300539 1.35691 5.7605 0.838721 5.98357C0.74447 6.01632 -0.078672 6.32345 0.00611675 7.00759C0.081808 7.6244 0.743379 7.87985 0.824165 7.90933L4.06033 9.01741C4.27503 9.73211 5.06651 12.3689 5.24155 12.9322C5.35072 13.2834 5.52867 13.7448 5.84053 13.8398C6.11418 13.9453 6.38638 13.8489 6.56251 13.7106L8.54103 11.8755L11.735 14.3664L11.811 14.4119C12.0279 14.5079 12.2357 14.556 12.434 14.556C12.5872 14.556 12.7343 14.5272 12.8747 14.4697C13.3533 14.2732 13.5447 13.8173 13.5647 13.7656L15.9504 1.36495C16.096 0.702648 15.8936 0.365677 15.6979 0.200102ZM6.9144 9.46064L5.8227 12.3718L4.731 8.73284L13.1007 2.54653L6.9144 9.46064Z" fill="#0088CC"/>
</svg>
