<svg width="16" height="17" viewBox="0 0 16 17" fill="none" xmlns="http://www.w3.org/2000/svg">
<path d="M11.7802 10.0601C11.3358 9.68127 11.1306 9.56672 10.517 9.19394C10.2614 9.03891 9.87177 8.90494 9.66737 8.90494C9.52777 8.90494 9.36057 9.01301 9.25817 9.11663C8.99577 9.38215 8.90977 9.71446 8.44977 9.71446C7.99977 9.71446 7.21377 9.25101 6.64977 8.65196C6.05777 8.08124 5.59977 7.28589 5.59977 6.83053C5.59977 6.36505 5.92217 6.27196 6.18457 6.00603C6.28697 5.90282 6.39977 5.73363 6.39977 5.59236C6.39977 5.38553 6.26737 4.99736 6.11417 4.73872C5.74577 4.11741 5.63297 3.90977 5.25817 3.46048C5.13137 3.30829 4.98697 3.23867 4.83577 3.23827C4.58017 3.23786 4.24457 3.36617 4.01737 3.53739C3.67577 3.79522 3.31857 4.14615 3.22297 4.58329C3.21017 4.64279 3.20257 4.7027 3.20017 4.7626C3.18177 5.21796 3.35857 5.6802 3.54937 6.0716C3.99857 6.99405 4.59297 7.88696 5.23977 8.68434C5.44657 8.93934 5.67177 9.17653 5.90497 9.40563C6.13137 9.6412 6.36577 9.86908 6.61777 10.0787C7.40577 10.7332 8.28817 11.3347 9.19977 11.7893C9.58297 11.9803 10.0342 12.156 10.4798 12.143C10.5434 12.141 10.607 12.1337 10.6706 12.1196C11.1026 12.0232 11.4494 11.6614 11.7042 11.3157C11.8734 11.0858 12.0002 10.7466 11.9998 10.4876C11.9994 10.3346 11.9306 10.1884 11.7802 10.0601ZM11.9998 8.09541C11.779 8.09541 11.5998 7.91408 11.5998 7.69065V7.28589C11.5998 5.27746 9.98457 3.64303 7.99977 3.64303C7.77897 3.64303 7.59977 3.4617 7.59977 3.23827C7.59977 3.01484 7.77897 2.83351 7.99977 2.83351C10.4258 2.83351 12.3998 4.83101 12.3998 7.28589V7.69065C12.3998 7.91408 12.2206 8.09541 11.9998 8.09541ZM9.54297 7.28589C9.36537 7.28589 9.20297 7.16527 9.15617 6.98313C9.04657 6.55772 8.71857 6.22541 8.29977 6.11613C8.08577 6.05986 7.95737 5.83927 8.01257 5.62272C8.06777 5.40658 8.28537 5.27665 8.50017 5.3321C9.19937 5.51546 9.74737 6.06958 9.93017 6.77872C9.98577 6.99527 9.85777 7.21586 9.64417 7.27253C9.61017 7.28144 9.57617 7.28589 9.54297 7.28589Z" fill="#7E57C2"/>
<path d="M10.7999 7.69051C10.5791 7.69051 10.3999 7.50918 10.3999 7.28575C10.3999 5.99537 9.40231 4.93084 8.12871 4.86284C7.90791 4.85111 7.73871 4.66046 7.75031 4.43744C7.76191 4.21401 7.95351 4.04239 8.17071 4.05453C9.86951 4.1452 11.1999 5.5647 11.1999 7.28575C11.1999 7.50918 11.0207 7.69051 10.7999 7.69051Z" fill="#7E57C2"/>
<path d="M8.0002 0C6.2002 0 3.3954 0.167571 1.6866 1.74695C0.4786 2.96407 0.000200029 4.67136 0.000200029 6.88095C0.000200029 7.0639 -0.000600029 7.2679 0.000999971 7.48809C-0.000600029 7.70788 0.000200029 7.91188 0.000200029 8.09483C0.000200029 10.3044 0.4786 12.0117 1.6866 13.2288C2.337 13.8299 3.1482 14.2254 4.0002 14.486V16.3423C4.0002 16.9883 4.4198 17 4.4966 17H4.5002C4.6978 16.9992 4.8686 16.9012 5.0398 16.7474C5.1042 16.6895 5.8478 15.8509 6.6566 14.9337C7.1382 14.9649 7.5958 14.9762 7.9998 14.9762C9.7998 14.9762 12.6042 14.8082 14.3134 13.2288C15.521 12.0121 15.9998 10.3044 15.9998 8.09483C15.9998 7.91188 16.0006 7.70788 15.999 7.48769C16.0006 7.2675 15.9998 7.0639 15.9998 6.88055C15.9998 4.67095 15.5214 2.96367 14.3134 1.74655C12.6046 0.167571 9.8002 0 8.0002 0ZM14.8002 7.95398V8.09483C14.8002 10.0806 14.3822 11.4337 13.4858 12.3497C11.933 13.7619 8.975 13.7619 7.9998 13.7619C7.703 13.7619 7.2214 13.7615 6.653 13.7214C6.495 13.9011 4.8002 15.8193 4.8002 15.8193V13.4462C3.9586 13.2418 3.127 12.9066 2.5146 12.3501C1.6182 11.4337 1.2002 10.0806 1.2002 8.09483V7.95398C1.2002 7.8119 1.1998 7.6585 1.201 7.47919C1.1998 7.31729 1.1998 7.16429 1.2002 7.02181V6.88095C1.2002 4.89519 1.6182 3.54207 2.5146 2.6261C4.067 1.21388 7.0254 1.21388 8.0002 1.21388C8.975 1.21388 11.933 1.21388 13.4854 2.6261C14.3822 3.54207 14.7998 4.89519 14.7998 6.88095V7.02181C14.7998 7.16388 14.8002 7.31729 14.799 7.49659C14.8002 7.6589 14.8002 7.8119 14.8002 7.95398Z" fill="#7E57C2"/>
</svg>
