<svg width="40" height="40" viewBox="0 0 40 40" fill="none" xmlns="http://www.w3.org/2000/svg">
<path d="M0 8C0 5.19974 0 3.79961 0.544967 2.73005C1.02433 1.78924 1.78924 1.02433 2.73005 0.544967C3.79961 0 5.19974 0 8 0H32C34.8003 0 36.2004 0 37.27 0.544967C38.2108 1.02433 38.9757 1.78924 39.455 2.73005C40 3.79961 40 5.19974 40 8V32C40 34.8003 40 36.2004 39.455 37.27C38.9757 38.2108 38.2108 38.9757 37.27 39.455C36.2004 40 34.8003 40 32 40H8C5.19974 40 3.79961 40 2.73005 39.455C1.78924 38.9757 1.02433 38.2108 0.544967 37.27C0 36.2004 0 34.8003 0 32V8Z" fill="#DF908A"/>
<path d="M29.582 14.186C29.352 13.326 28.674 12.648 27.814 12.418C26.254 12 20 12 20 12C20 12 13.746 12 12.186 12.418C11.326 12.648 10.648 13.326 10.418 14.186C10 15.746 10 20 10 20C10 20 10 24.254 10.418 25.814C10.648 26.674 11.326 27.352 12.186 27.582C13.746 28 20 28 20 28C20 28 26.254 28 27.814 27.582C28.675 27.352 29.352 26.674 29.582 25.814C30 24.254 30 20 30 20C30 20 30 15.746 29.582 14.186ZM18 23.464V16.536L24 20L18 23.464Z" fill="#BC0000"/>
</svg>
