<svg width="18" height="18" viewBox="0 0 18 18" fill="none" xmlns="http://www.w3.org/2000/svg">
<path fill-rule="evenodd" clip-rule="evenodd" d="M4.16146 8.00664e-07H4.2H13.8H13.8385H13.8386C14.3657 -1.6247e-05 14.8205 -3.09516e-05 15.195 0.030572C15.5904 0.062873 15.9836 0.134189 16.362 0.326983C16.9265 0.614603 17.3854 1.07354 17.673 1.63803C17.8658 2.01641 17.9371 2.40963 17.9694 2.80497C18 3.17954 18 3.6343 18 4.16144V4.2V13.8V13.8386C18 14.3657 18 14.8205 17.9694 15.195C17.9371 15.5904 17.8658 15.9836 17.673 16.362C17.3854 16.9265 16.9265 17.3854 16.362 17.673C15.9836 17.8658 15.5904 17.9371 15.195 17.9694C14.8205 18 14.3657 18 13.8386 18H13.8H4.2H4.16144C3.6343 18 3.17954 18 2.80497 17.9694C2.40963 17.9371 2.01641 17.8658 1.63803 17.673C1.07354 17.3854 0.614603 16.9265 0.326983 16.362C0.134189 15.9836 0.062873 15.5904 0.030572 15.195C-3.09516e-05 14.8205 -1.6247e-05 14.3657 8.00661e-07 13.8386V13.8385V13.8V4.2V4.16146V4.16142C-1.6247e-05 3.63429 -3.09516e-05 3.17954 0.030572 2.80497C0.062873 2.40963 0.134189 2.01641 0.326983 1.63803C0.614603 1.07354 1.07354 0.614603 1.63803 0.326983C2.01641 0.134189 2.40963 0.062873 2.80497 0.030572C3.17954 -3.09534e-05 3.63429 -1.6247e-05 4.16142 8.00664e-07H4.16146ZM2.96784 2.02393C2.69618 2.04613 2.59546 2.0838 2.54601 2.109C2.35785 2.20487 2.20487 2.35785 2.109 2.54601C2.0838 2.59546 2.04613 2.69618 2.02393 2.96784C2.00078 3.25118 2 3.62345 2 4.2V13.8C2 14.3766 2.00078 14.7488 2.02393 15.0322C2.04613 15.3038 2.0838 15.4045 2.109 15.454C2.20487 15.6422 2.35785 15.7951 2.54601 15.891C2.59546 15.9162 2.69618 15.9539 2.96784 15.9761C3.25118 15.9992 3.62345 16 4.2 16H13.8C14.3766 16 14.7488 15.9992 15.0322 15.9761C15.3038 15.9539 15.4045 15.9162 15.454 15.891C15.6422 15.7951 15.7951 15.6422 15.891 15.454C15.9162 15.4045 15.9539 15.3038 15.9761 15.0322C15.9992 14.7488 16 14.3766 16 13.8V4.2C16 3.62345 15.9992 3.25118 15.9761 2.96784C15.9539 2.69618 15.9162 2.59546 15.891 2.54601C15.7951 2.35785 15.6422 2.20487 15.454 2.109C15.4045 2.0838 15.3038 2.04613 15.0322 2.02393C14.7488 2.00078 14.3766 2 13.8 2H4.2C3.62345 2 3.25118 2.00078 2.96784 2.02393ZM8 5C8 4.44772 8.44772 4 9 4C9.55229 4 10 4.44772 10 5V8H13C13.5523 8 14 8.44772 14 9C14 9.55229 13.5523 10 13 10H10V13C10 13.5523 9.55229 14 9 14C8.44772 14 8 13.5523 8 13V10H5C4.44772 10 4 9.55229 4 9C4 8.44772 4.44772 8 5 8H8V5Z" fill="#2A4455"/>
</svg>
