<svg width="20" height="18" viewBox="0 0 20 18" fill="none" xmlns="http://www.w3.org/2000/svg">
<path fill-rule="evenodd" clip-rule="evenodd" d="M9.41397 1.54843C7.21833 -0.555219 3.77908 -0.507387 1.63999 1.69192C-0.546664 3.94013 -0.546661 7.58519 1.63999 9.8334L8.86466 17.2614C9.26136 17.6693 9.45971 17.8733 9.68863 17.9496C9.88997 18.0168 10.107 18.0168 10.3083 17.9496C10.5372 17.8733 10.7356 17.6693 11.1323 17.2614L17.917 10.2857L17.9158 10.2844L18.36 9.82763C20.5467 7.57942 20.5467 3.93436 18.36 1.68615C16.2212 -0.512887 12.7825 -0.560976 10.5868 1.54189C10.5377 1.5889 10.4893 1.63699 10.4415 1.68616L9.99719 2.14292L9.55854 1.69192C9.51099 1.64303 9.46279 1.5952 9.41397 1.54843ZM15.0943 10.2861L9.99846 15.5254L3.05724 8.38874C1.64759 6.9394 1.64759 4.58592 3.05724 3.13658C4.46215 1.69212 6.73638 1.69212 8.14129 3.13658L9.99719 5.04473L11.8587 3.13081C13.2636 1.68635 15.5378 1.68635 16.9428 3.13081C18.3524 4.58015 18.3524 6.93363 16.9428 8.38297L15.093 10.2848L15.0943 10.2861ZM9.3555 16.1754C9.35553 16.1754 9.35601 16.175 9.3569 16.1743L9.3555 16.1754Z" fill="#2A4455"/>
</svg>
