<svg width="24" height="24" viewBox="0 0 24 24" fill="none" xmlns="http://www.w3.org/2000/svg">
<path fill-rule="evenodd" clip-rule="evenodd" d="M3 5C3 3.89543 3.89543 3 5 3H19C20.1046 3 21 3.89543 21 5C21 6.10457 20.1046 7 19 7H5C3.89543 7 3 6.10457 3 5ZM3 12C3 10.8954 3.89543 10 5 10H19C20.1046 10 21 10.8954 21 12C21 13.1046 20.1046 14 19 14H5C3.89543 14 3 13.1046 3 12ZM5 17C3.89543 17 3 17.8954 3 19C3 20.1046 3.89543 21 5 21H19C20.1046 21 21 20.1046 21 19C21 17.8954 20.1046 17 19 17H5Z" fill="#D3D3D3"/>
</svg>
