<svg width="32" height="32" viewBox="0 0 32 32" fill="none" xmlns="http://www.w3.org/2000/svg">
<path fill-rule="evenodd" clip-rule="evenodd" d="M7.32755 5.00838C7.22671 5.00068 7.08671 5 6.82523 5H3.00223C2.44871 5 2 4.55229 2 4C2 3.44772 2.44871 3 3.00223 3H6.82523L6.85417 3C7.07528 2.99998 7.29363 2.99995 7.48041 3.0142C7.68786 3.03003 7.92942 3.06725 8.17827 3.18058C8.52767 3.33971 8.8239 3.59565 9.0317 3.91795C9.17969 4.14749 9.25114 4.38072 9.2965 4.58332C9.33734 4.76573 9.36853 4.98136 9.40011 5.19971L9.40425 5.22831L11.4145 19.1145C11.4871 19.6159 11.5342 19.9364 11.5886 20.1793C11.6402 20.41 11.6836 20.4963 11.7124 20.541C11.8163 20.7022 11.9645 20.8302 12.1392 20.9097C12.1877 20.9318 12.2795 20.9623 12.5157 20.9803C12.7644 20.9993 13.0891 21 13.5968 21H24.8673C25.3936 21 25.731 20.9993 25.989 20.9792C26.2347 20.9601 26.329 20.9277 26.3779 20.9047C26.5566 20.8208 26.7064 20.6861 26.8086 20.5176C26.8365 20.4714 26.8786 20.3812 26.9231 20.1394C26.9699 19.8854 27.0057 19.5506 27.0603 19.0283L27.9479 10.5385H14.7283C14.1748 10.5385 13.7261 10.0908 13.7261 9.53847C13.7261 8.98618 14.1748 8.53847 14.7283 8.53847H28.1703L28.1954 8.53846C28.3269 8.53841 28.4812 8.53835 28.616 8.54978C28.7698 8.56282 28.9957 8.59649 29.2279 8.72384C29.5249 8.88666 29.7581 9.14482 29.8896 9.45644C29.9924 9.70016 30.0025 9.92778 29.9996 10.0818C29.997 10.2167 29.9809 10.3698 29.9672 10.5003L29.9646 10.5252L29.0539 19.2358L29.0501 19.2717C29.0004 19.7477 28.9572 20.161 28.8946 20.5009C28.8281 20.8616 28.7277 21.2161 28.5237 21.5527C28.2171 22.0584 27.7677 22.4624 27.2318 22.7142C26.8752 22.8817 26.5113 22.9446 26.1449 22.9732C25.7996 23 25.3832 23 24.9035 23H24.8673H13.5968H13.5615C13.0992 23 12.6972 23 12.3628 22.9745C12.0075 22.9474 11.6548 22.8876 11.3068 22.7291C10.7827 22.4904 10.3384 22.1065 10.0267 21.6231C9.81974 21.3021 9.71002 20.9624 9.63232 20.6154C9.55922 20.2888 9.50176 19.8918 9.43568 19.4353L9.43064 19.4004L7.42039 5.51423C7.383 5.25601 7.36232 5.11785 7.34027 5.01936L7.33795 5.00922L7.32755 5.00838ZM16.0312 26.5C16.0312 27.8807 14.9094 29 13.5256 29C12.1418 29 11.02 27.8807 11.02 26.5C11.02 25.1193 12.1418 24 13.5256 24C14.9094 24 16.0312 25.1193 16.0312 26.5ZM24.5501 29C25.9339 29 27.0557 27.8807 27.0557 26.5C27.0557 25.1193 25.9339 24 24.5501 24C23.1663 24 22.0445 25.1193 22.0445 26.5C22.0445 27.8807 23.1663 29 24.5501 29Z" fill="#D3D3D3"/>
</svg>
