<svg width="32" height="32" viewBox="0 0 32 32" fill="none" xmlns="http://www.w3.org/2000/svg">
<path fill-rule="evenodd" clip-rule="evenodd" d="M19.007 3.99142C19.0747 3.37987 19.6246 2.93907 20.2353 3.00688C22.2149 3.2267 24.0612 4.11279 25.471 5.52015C26.8809 6.92755 27.7703 8.77262 27.9929 10.7525C28.0617 11.364 27.6224 11.9154 27.0119 11.9843C26.4013 12.0531 25.8506 11.6132 25.7819 11.0018C25.6159 9.5253 24.9525 8.14872 23.9002 7.09823C22.8479 6.0477 21.4691 5.38575 19.9901 5.22152C19.3794 5.15372 18.9393 4.60298 19.007 3.99142ZM19.0207 7.30829C19.1382 6.70433 19.7223 6.31006 20.3254 6.42767C21.3746 6.63229 22.3392 7.14525 23.0955 7.90125C23.8519 8.65727 24.3656 9.62195 24.5706 10.6719C24.6885 11.2758 24.2952 11.8611 23.6922 11.9791C23.0892 12.0971 22.5048 11.7033 22.3869 11.0994C22.2671 10.4855 21.9667 9.92105 21.5237 9.47834C21.0808 9.03561 20.5155 8.73482 19.9001 8.6148C19.297 8.49719 18.9033 7.91225 19.0207 7.30829Z" fill="#D3D3D3"/>
<path fill-rule="evenodd" clip-rule="evenodd" d="M10.3355 6.29295C10.1124 6.10142 9.82674 5.99716 9.53178 6.00006L9.52196 6.00016L6.20215 6.00011C5.53822 6.00011 5 6.53833 5 7.20225V7.35405C5.35284 10.5925 6.461 13.7039 8.23607 16.4385L8.24084 16.4459C9.86094 18.9904 12.0226 21.1479 14.5725 22.765L14.5803 22.7699C17.308 24.5353 20.4107 25.6413 23.6416 26H23.7905C24.4581 26 24.9993 25.4588 24.9993 24.7912V21.4779C24.9993 21.4697 24.9994 21.4614 24.9996 21.4531C25.007 21.1572 24.9052 20.8687 24.7131 20.6425C24.5594 20.4614 24.296 20.3162 23.8547 20.2064L21.2769 19.5655C21.1671 19.5383 21.051 19.5516 20.9518 19.6021L18.4015 20.8972C17.6719 21.2678 16.7727 21.2668 16.0378 20.8053C13.6664 19.3164 11.6601 17.3146 10.1675 14.9479C9.70292 14.2112 9.70194 13.3085 10.075 12.5769L11.3696 10.0378C11.4203 9.93836 11.4338 9.82165 11.4063 9.71142L10.7649 7.14187C10.7565 7.10825 10.7499 7.07422 10.7451 7.03992C10.704 6.74999 10.5586 6.48443 10.3355 6.29295ZM9.51751 4.00011C10.2947 3.99377 11.0483 4.269 11.6381 4.7753C12.215 5.27046 12.5971 5.95375 12.7168 6.70328L13.3468 9.22707C13.4907 9.80356 13.4222 10.4151 13.1514 10.9463L11.8567 13.4854C11.7811 13.6337 11.797 13.7824 11.8592 13.881C13.1918 15.9941 14.9834 17.7817 17.1013 19.1115C17.1998 19.1734 17.348 19.1891 17.4959 19.114L20.0461 17.8188C20.5757 17.5499 21.1847 17.4818 21.7594 17.6246L24.3372 18.2655C24.9495 18.4177 25.6895 18.7024 26.2377 19.3481C26.7445 19.9451 27.0155 20.7066 26.9993 21.4892V24.7912C26.9993 26.5634 25.5627 28 23.7905 28H23.5869C23.5509 28 23.5149 27.9981 23.4791 27.9942C19.9203 27.6082 16.5016 26.3949 13.4975 24.4515C10.7028 22.6784 8.33295 20.3133 6.55609 17.5237C4.60171 14.5116 3.38535 11.0823 3.00561 7.51353C3.00187 7.47839 3 7.44307 3 7.40773V7.20225C3 5.43375 4.43365 4.00011 6.20215 4.00011H9.51751Z" fill="#D3D3D3"/>
</svg>
