<svg width="32" height="32" viewBox="0 0 32 32" fill="none" xmlns="http://www.w3.org/2000/svg">
<path fill-rule="evenodd" clip-rule="evenodd" d="M22.8024 14.4012C22.8024 19.0411 19.0411 22.8024 14.4012 22.8024C9.76136 22.8024 6 19.0411 6 14.4012C6 9.76136 9.76136 6 14.4012 6C19.0411 6 22.8024 9.76136 22.8024 14.4012ZM20.8938 22.5277C19.1143 23.9512 16.8572 24.8024 14.4012 24.8024C8.65679 24.8024 4 20.1457 4 14.4012C4 8.65679 8.65679 4 14.4012 4C20.1457 4 24.8024 8.65679 24.8024 14.4012C24.8024 16.857 23.9514 19.114 22.5281 20.8933L27.6618 26.027C28.1131 26.4783 28.1131 27.2101 27.6618 27.6614C27.2105 28.1127 26.4787 28.1127 26.0274 27.6614L20.8938 22.5277Z" fill="#D3D3D3"/>
</svg>
