<svg width="32" height="32" viewBox="0 0 32 32" fill="none" xmlns="http://www.w3.org/2000/svg">
<path fill-rule="evenodd" clip-rule="evenodd" d="M20 9C20 11.2091 18.2091 13 16 13C13.7909 13 12 11.2091 12 9C12 6.79086 13.7909 5 16 5C18.2091 5 20 6.79086 20 9ZM22 9C22 12.3137 19.3137 15 16 15C12.6863 15 10 12.3137 10 9C10 5.68629 12.6863 3 16 3C19.3137 3 22 5.68629 22 9ZM7 24C7 20.6863 9.68629 18 13 18H16H19C22.3137 18 25 20.6863 25 24V28C25 28.5523 25.4477 29 26 29C26.5523 29 27 28.5523 27 28V24C27 19.5817 23.4183 16 19 16H16H13C8.58172 16 5 19.5817 5 24V27C5 28.1046 5.89543 29 7 29H19.3333C19.8856 29 20.3333 28.5523 20.3333 28C20.3333 27.4477 19.8856 27 19.3333 27H7V24Z" fill="#D3D3D3"/>
</svg>
