<svg width="26" height="26" viewBox="0 0 26 26" fill="none" xmlns="http://www.w3.org/2000/svg">
<path fill-rule="evenodd" clip-rule="evenodd" d="M15.4394 4.35311C14.011 3.9322 12.5018 3.88683 11.0518 4.22106C9.60183 4.5553 8.25673 5.25872 7.14264 6.26754C6.02843 7.27646 5.18153 8.55812 4.68282 9.9939C4.50161 10.5156 3.93178 10.7916 3.41007 10.6104C2.88836 10.4292 2.61233 9.85939 2.79354 9.33768C3.40138 7.58771 4.43514 6.02109 5.8002 4.78502C7.16538 3.54884 8.81736 2.68369 10.6026 2.27217C12.3879 1.86063 14.2466 1.91659 16.0047 2.43467C17.7576 2.95122 19.352 3.90988 20.6408 5.2197L24 8.43553V4.10877C24 3.55649 24.4477 3.10877 25 3.10877C25.5523 3.10877 26 3.55649 26 4.10877V10.7772C26 11.3295 25.5523 11.7772 25 11.7772H18.4545C17.9023 11.7772 17.4545 11.3295 17.4545 10.7772C17.4545 10.2249 17.9023 9.77719 18.4545 9.77719H22.5093L19.2467 6.65383C19.2391 6.6466 19.2317 6.63926 19.2244 6.63179C18.1702 5.55732 16.8678 4.77404 15.4394 4.35311ZM0 15.2228C0 14.6705 0.447715 14.2228 1 14.2228H7.54545C8.09774 14.2228 8.54545 14.6705 8.54545 15.2228C8.54545 15.7751 8.09774 16.2228 7.54545 16.2228H3.49069L6.75334 19.3462C6.76089 19.3534 6.76833 19.3607 6.77565 19.3682C7.82978 20.4427 9.13223 21.226 10.5606 21.6469C11.989 22.0678 13.4982 22.1132 14.9482 21.7789C16.3982 21.4447 17.7433 20.7413 18.8574 19.7325C19.9716 18.7235 20.8185 17.4419 21.3172 16.0061C21.4984 15.4844 22.0682 15.2084 22.5899 15.3896C23.1116 15.5708 23.3877 16.1406 23.2065 16.6623C22.5986 18.4123 21.5649 19.9789 20.1998 21.215C18.8346 22.4512 17.1826 23.3163 15.3974 23.7278C13.6121 24.1394 11.7534 24.0834 9.99531 23.5653C8.24241 23.0488 6.64803 22.0901 5.35922 20.7803L2 17.5645V21.8912C2 22.4435 1.55228 22.8912 1 22.8912C0.447715 22.8912 0 22.4435 0 21.8912V15.2228Z" fill="white" fill-opacity="0.5"/>
</svg>
