<svg width="22" height="22" viewBox="0 0 22 22" fill="none" xmlns="http://www.w3.org/2000/svg">
<path d="M4.1255 2.0084C4.02445 2.00068 3.88415 2 3.62217 2H1.00272C0.448935 2 0 1.55229 0 1C0 0.44772 0.448935 4.75124e-06 1.00272 4.75124e-06L3.65116 2.36706e-06C3.8727 -2.48127e-05 4.09146 -5.16344e-05 4.27856 0.0142315C4.48635 0.0300931 4.72833 0.0673789 4.97755 0.180966C5.32744 0.340436 5.62396 0.596905 5.83174 0.919787C5.97973 1.14977 6.05097 1.38339 6.0961 1.58629C6.13674 1.769 6.16765 1.98498 6.19895 2.20371L7.61815 12.1111C7.69009 12.6133 7.73677 12.9344 7.7909 13.1777C7.84231 13.4089 7.88566 13.4953 7.9145 13.5401C8.01839 13.7016 8.16665 13.8298 8.34159 13.9095C8.39016 13.9317 8.48208 13.9622 8.71878 13.9803C8.96799 13.9993 9.29331 14 9.80198 14H17.1506C17.6792 14 18.0182 13.9993 18.2775 13.9791C18.5243 13.9599 18.6189 13.9273 18.6679 13.9042C18.847 13.8198 18.9971 13.6844 19.0991 13.515C19.127 13.4687 19.1689 13.378 19.2127 13.135C19.2576 12.8857 19.2915 12.559 19.3421 12.0551L19.9492 6H10.0272C9.47345 6 9.02452 5.55229 9.02452 5C9.02452 4.44772 9.47345 4 10.0272 4L20.1958 4C20.3269 3.99995 20.4807 3.99989 20.6152 4.01127C20.7688 4.02426 20.994 4.0578 21.2258 4.18445C21.5224 4.34647 21.7556 4.60342 21.8877 4.91386C21.991 5.1565 22.0021 5.38332 21.9997 5.53704C21.9977 5.67161 21.9823 5.82427 21.9692 5.95435L21.3376 12.254C21.2896 12.7322 21.248 13.1471 21.1866 13.4885C21.1214 13.8506 21.0219 14.2067 20.8182 14.545C20.5121 15.0531 20.0619 15.4594 19.5245 15.7125C19.1667 15.8811 18.8015 15.9443 18.4337 15.973C18.087 16 17.6689 16 17.187 16H9.76666C9.30344 16 8.90066 16 8.56572 15.9745C8.20977 15.9473 7.85649 15.8874 7.50801 15.7286C6.98317 15.4894 6.53839 15.1047 6.22672 14.6203C6.01978 14.2988 5.91035 13.9584 5.83304 13.6109C5.7603 13.2838 5.70335 12.8862 5.63786 12.4289L4.21776 2.51515C4.18073 2.25668 4.16018 2.11805 4.13824 2.01942L4.13593 2.00924L4.1255 2.0084Z" fill="#1D262C"/>
<path d="M11.03 20C11.03 21.1046 10.1321 22 9.02452 22C7.91694 22 7.01907 21.1046 7.01907 20C7.01907 18.8954 7.91694 18 9.02452 18C10.1321 18 11.03 18.8954 11.03 20Z" fill="#1D262C"/>
<path d="M18.049 22C19.1566 22 20.0545 21.1046 20.0545 20C20.0545 18.8954 19.1566 18 18.049 18C16.9415 18 16.0436 18.8954 16.0436 20C16.0436 21.1046 16.9415 22 18.049 22Z" fill="#1D262C"/>
</svg>
