<svg width="22" height="21" viewBox="0 0 22 21" fill="none" xmlns="http://www.w3.org/2000/svg">
<path fill-rule="evenodd" clip-rule="evenodd" d="M18.4812 1.45685L13.2673 6.67076L14.6117 8.01518L19.8255 2.80135L20.4291 4.09564C21.6295 6.66977 21.122 9.84968 18.9715 12.0002C17.1146 13.8571 14.4911 14.4884 12.1528 13.8545L6.43744 19.5699C5.13278 20.8745 3.01752 20.8745 1.71287 19.5699C0.408213 18.2652 0.40821 16.1499 1.71287 14.8453L7.42751 9.13064C6.79276 6.79179 7.42395 4.16747 9.28138 2.31004C11.4323 0.159155 14.613 -0.348206 17.1874 0.853114L18.4812 1.45685ZM14.8606 2.24898C13.3994 2.08141 11.85 2.56986 10.6956 3.72426C9.22836 5.19149 8.83622 7.29811 9.50171 9.05048L9.73137 9.65521L3.12708 16.2595C2.60347 16.7831 2.60347 17.632 3.12708 18.1556C3.65069 18.6792 4.49962 18.6792 5.02322 18.1556L11.6279 11.551L12.2325 11.7804C13.9846 12.4451 16.0904 12.0528 17.5573 10.5859C18.7112 9.43199 19.1998 7.88335 19.0327 6.42257L16.0259 9.42939C15.2449 10.2104 13.9785 10.2104 13.1975 9.42939L11.8531 8.08497C11.072 7.30392 11.072 6.03759 11.8531 5.25654L14.8606 2.24898Z" fill="#BC0000"/>
</svg>
