<svg width="22" height="20" viewBox="0 0 22 20" fill="none" xmlns="http://www.w3.org/2000/svg">
<path fill-rule="evenodd" clip-rule="evenodd" d="M10.1831 1.52323C7.76341 -0.599506 4.10176 -0.495319 1.80397 1.83579C-0.601324 4.27596 -0.601324 8.23226 1.80397 10.6724L10.9982 20L19.7086 11.1634L19.7076 11.1623L20.196 10.6668C22.6013 8.2266 22.6013 4.2703 20.196 1.83013C17.8987 -0.500504 14.2381 -0.605126 11.8184 1.51626C11.7046 1.61597 11.5937 1.72059 11.4857 1.83013L10.9972 2.32569L10.5143 1.83579C10.4068 1.72673 10.2963 1.62254 10.1831 1.52323ZM16.9007 11.163L16.8997 11.1619L18.7717 9.26277C20.4094 7.60126 20.4094 4.89564 18.7717 3.23413C17.1497 1.58862 14.532 1.58862 12.91 3.23413L10.9972 5.17469L9.08996 3.23979C7.46798 1.59429 4.85031 1.59429 3.22833 3.23979C1.59056 4.90131 1.59056 7.60692 3.22833 9.26843L10.9982 17.151L16.9007 11.163Z" fill="#D3D3D3"/>
</svg>
