<svg width="16" height="19" viewBox="0 0 16 19" fill="none" xmlns="http://www.w3.org/2000/svg">
<path fill-rule="evenodd" clip-rule="evenodd" d="M8 2C6.40661 2 4.87978 2.62892 3.75505 3.74635C2.63055 4.86355 2 6.37741 2 7.95455C2 10.2547 3.51297 12.5215 5.22371 14.3156C6.05823 15.1907 6.8962 15.908 7.52669 16.4068C7.70288 16.5462 7.86223 16.668 8 16.7709C8.13777 16.668 8.29712 16.5462 8.47331 16.4068C9.1038 15.908 9.94177 15.1907 10.7763 14.3156C12.487 12.5215 14 10.2547 14 7.95455C14 6.37741 13.3695 4.86355 12.2449 3.74635C11.1202 2.62892 9.59339 2 8 2ZM8 18C7.4478 18.8337 7.44728 18.8334 7.44728 18.8334L7.44477 18.8317L7.43919 18.828L7.42056 18.8155C7.40487 18.8049 7.38272 18.7898 7.35453 18.7704C7.29815 18.7316 7.21757 18.6754 7.11624 18.6027C6.91368 18.4574 6.62761 18.2457 6.28581 17.9753C5.6038 17.4358 4.69177 16.6558 3.77629 15.6958C1.98703 13.8194 0 11.0635 0 7.95455C5.96046e-08 5.84276 0.844448 3.81879 2.34545 2.32753C3.84624 0.836494 5.88036 0 8 0C10.1196 0 12.1538 0.836494 13.6545 2.32753C15.1556 3.81879 16 5.84276 16 7.95455C16 11.0635 14.013 13.8194 12.2237 15.6958C11.3082 16.6558 10.3962 17.4358 9.71419 17.9753C9.37239 18.2457 9.08632 18.4574 8.88377 18.6027C8.78244 18.6754 8.70185 18.7316 8.64548 18.7704C8.61728 18.7898 8.59513 18.8049 8.57944 18.8155L8.56081 18.828L8.55523 18.8317L8.5534 18.8329C8.5534 18.8329 8.5522 18.8337 8 18ZM8 18L8.5522 18.8337C8.21745 19.0554 7.78203 19.0551 7.44728 18.8334L8 18ZM8 6.63636C7.25747 6.63636 6.66667 7.23267 6.66667 7.95455C6.66667 8.67643 7.25747 9.27273 8 9.27273C8.74253 9.27273 9.33333 8.67643 9.33333 7.95455C9.33333 7.23267 8.74253 6.63636 8 6.63636ZM4.66667 7.95455C4.66667 6.11583 6.1652 4.63636 8 4.63636C9.8348 4.63636 11.3333 6.11583 11.3333 7.95455C11.3333 9.79326 9.8348 11.2727 8 11.2727C6.1652 11.2727 4.66667 9.79326 4.66667 7.95455Z" fill="#D3D3D3"/>
</svg>
