<svg width="20" height="22" viewBox="0 0 20 22" fill="none" xmlns="http://www.w3.org/2000/svg">
<path fill-rule="evenodd" clip-rule="evenodd" d="M13 5C13 6.65685 11.6569 8 10 8C8.34315 8 7 6.65685 7 5C7 3.34315 8.34315 2 10 2C11.6569 2 13 3.34315 13 5ZM15 5C15 7.76142 12.7614 10 10 10C7.23858 10 5 7.76142 5 5C5 2.23858 7.23858 0 10 0C12.7614 0 15 2.23858 15 5ZM2 18C2 15.2386 4.23858 13 7 13H10H13C15.7614 13 18 15.2386 18 18V21C18 21.5523 18.4477 22 19 22C19.5523 22 20 21.5523 20 21V18C20 14.134 16.866 11 13 11H10H7C3.13401 11 0 14.134 0 18V20C0 21.1046 0.895431 22 2 22H15C15.5523 22 16 21.5523 16 21C16 20.4477 15.5523 20 15 20H2V18Z" fill="#2A4455"/>
</svg>
