<svg width="18" height="14" viewBox="0 0 18 14" fill="none" xmlns="http://www.w3.org/2000/svg">
<path fill-rule="evenodd" clip-rule="evenodd" d="M14.5858 2H3.41421L8.29289 6.87868C8.68342 7.2692 9.31658 7.2692 9.70711 6.87868L14.5858 2ZM2 3.41421V10.8C2 11.3931 2.00156 11.7176 2.02061 11.9507L2.0229 11.9771L2.04927 11.9794C2.28244 11.9984 2.60695 12 3.2 12H14.8C15.3931 12 15.7176 11.9984 15.9507 11.9794L15.9771 11.9771L15.9794 11.9507C15.9984 11.7176 16 11.3931 16 10.8V3.41421L11.1213 8.29289C9.94975 9.46447 8.05025 9.46447 6.87868 8.29289L2 3.41421ZM0 3.2C0 2.0799 0 1.51984 0.217987 1.09202C0.409734 0.715695 0.715695 0.409734 1.09202 0.217987C1.51984 0 2.0799 0 3.2 0H14.8C15.9201 0 16.4802 0 16.908 0.217987C17.2843 0.409734 17.5903 0.715695 17.782 1.09202C18 1.51984 18 2.0799 18 3.2V10.8C18 11.9201 18 12.4802 17.782 12.908C17.5903 13.2843 17.2843 13.5903 16.908 13.782C16.4802 14 15.9201 14 14.8 14H3.2C2.0799 14 1.51984 14 1.09202 13.782C0.715695 13.5903 0.409734 13.2843 0.217987 12.908C0 12.4802 0 11.9201 0 10.8V3.2Z" fill="#BC0000"/>
</svg>
