<svg width="20" height="20" viewBox="0 0 20 20" fill="none" xmlns="http://www.w3.org/2000/svg">
<path fill-rule="evenodd" clip-rule="evenodd" d="M12.6291 14.3571C11.3155 15.3184 9.69551 15.886 7.94299 15.886C3.5562 15.886 0 12.3298 0 7.94299C0 3.5562 3.5562 0 7.94299 0C12.3298 0 15.886 3.5562 15.886 7.94299C15.886 9.69541 15.3185 11.3153 14.3572 12.6289L19.6423 17.9139C20.1195 18.3911 20.1195 19.1649 19.6423 19.6421C19.165 20.1193 18.3913 20.1193 17.9141 19.6421L12.6291 14.3571ZM13.886 7.94299C13.886 11.2252 11.2252 13.886 7.94299 13.886C4.66077 13.886 2 11.2252 2 7.94299C2 4.66077 4.66077 2 7.94299 2C11.2252 2 13.886 4.66077 13.886 7.94299Z" fill="white"/>
</svg>
