<svg width="19" height="19" viewBox="0 0 19 19" fill="none" xmlns="http://www.w3.org/2000/svg">
<path fill-rule="evenodd" clip-rule="evenodd" d="M5.76195 2.08605C5.6203 1.96446 5.43885 1.8982 5.2514 1.90004L5.24207 1.90013L2.66167 1.90008C2.24101 1.90008 1.9 2.24109 1.9 2.66175V2.77033C2.17243 5.25729 3.02415 7.64651 4.38746 9.74681L4.392 9.7538C5.63762 11.7102 7.29965 13.369 9.2602 14.6124L9.26762 14.6171C11.3626 15.9729 13.7452 16.823 16.2265 17.1H16.3326C16.7561 17.1 17.0995 16.7567 17.0995 16.3331V13.7579L17.0995 13.7541C17.0995 13.7475 17.0996 13.7409 17.0998 13.7342C17.1044 13.5467 17.0399 13.3638 16.918 13.2202C16.8326 13.1196 16.6691 13.0188 16.3408 12.9372L14.2702 12.4224L14.2668 12.4223L12.1311 13.5067C11.5692 13.7921 10.8769 13.7907 10.3074 13.439C8.37082 12.243 6.73858 10.6144 5.53965 8.68147C5.18555 8.11061 5.18419 7.41558 5.47146 6.85218L6.55662 4.72393L6.04062 2.65665C6.03265 2.62471 6.02634 2.59238 6.02173 2.55979C5.9957 2.37603 5.90356 2.20759 5.76195 2.08605ZM2.66167 8.3277e-05H5.23791C5.88349 -0.00500998 6.50937 0.223678 6.99941 0.644279C7.47694 1.05413 7.79385 1.61912 7.89471 2.23918L8.39941 4.26119C8.50976 4.70328 8.45881 5.17607 8.24929 5.587L7.16957 7.70457C8.20682 9.36836 9.61368 10.7722 11.2813 11.8073L13.4072 10.7277C13.817 10.5195 14.2881 10.469 14.7286 10.5785L16.7992 11.0933C17.2899 11.2153 17.9063 11.4486 18.3664 11.9906C18.7873 12.4863 19.0124 13.1185 18.9995 13.7684V16.3331C18.9995 17.806 17.8055 19 16.3326 19H16.1744C16.1402 19 16.106 18.9982 16.072 18.9945C13.2793 18.6916 10.5965 17.7395 8.239 16.2146C6.04584 14.823 4.18603 12.9669 2.79149 10.7778C1.25786 8.41387 0.303339 5.72268 0.00533266 2.92198C0.00178005 2.88859 0 2.85504 0 2.82146V2.66175C0 1.19175 1.19167 8.3277e-05 2.66167 8.3277e-05Z" fill="#BC0000"/>
<path fill-rule="evenodd" clip-rule="evenodd" d="M9.91643 1.88981C9.9773 1.34089 10.4716 0.945236 11.0205 1.0061C12.7999 1.2034 14.4596 1.99874 15.7268 3.26197C16.9941 4.52523 17.7936 6.18133 17.9937 7.95847C18.0554 8.50729 17.6606 9.00228 17.1118 9.06407C16.563 9.12586 16.068 8.73104 16.0062 8.18222C15.857 6.85693 15.2607 5.62133 14.3148 4.67843C13.3689 3.73549 12.1295 3.14133 10.8001 2.99393C10.2512 2.93306 9.85557 2.43873 9.91643 1.88981ZM9.92878 4.86697C10.0343 4.32487 10.5594 3.97098 11.1015 4.07655C12.0446 4.26021 12.9117 4.72064 13.5915 5.39921C14.2714 6.0778 14.7332 6.94368 14.9174 7.88614C15.0234 8.42817 14.6699 8.95346 14.1278 9.05942C13.5858 9.16537 13.0605 8.81186 12.9546 8.26983C12.8469 7.71882 12.5768 7.21215 12.1787 6.81478C11.7805 6.41739 11.2724 6.1474 10.7192 6.03968C10.1771 5.93412 9.82322 5.40908 9.92878 4.86697Z" fill="#BC0000"/>
</svg>
