<svg width="18" height="18" viewBox="0 0 18 18" fill="none" xmlns="http://www.w3.org/2000/svg">
<path fill-rule="evenodd" clip-rule="evenodd" d="M9 2C5.13401 2 2 5.13401 2 9C2 12.866 5.13401 16 9 16C12.866 16 16 12.866 16 9C16 5.13401 12.866 2 9 2ZM0 9C0 4.02944 4.02944 0 9 0C13.9706 0 18 4.02944 18 9C18 13.9706 13.9706 18 9 18C4.02944 18 0 13.9706 0 9ZM9 3.2C9.55229 3.2 10 3.64772 10 4.2V8.38197L12.6472 9.70557C13.1412 9.95256 13.3414 10.5532 13.0944 11.0472C12.8474 11.5412 12.2468 11.7414 11.7528 11.4944L8.55279 9.89443C8.214 9.72503 8 9.37877 8 9V4.2C8 3.64772 8.44772 3.2 9 3.2Z" fill="#D3D3D3"/>
</svg>
